<svg width="450" height="450" viewBox="287 287 450 450" xmlns="http://www.w3.org/2000/svg" style="display:block" preserveAspectRatio="xMidYMid meet"><svg x="387" y="335" width="268" height="347" xmlns="http://www.w3.org/2000/svg" style="display:block" preserveAspectRatio="none"><svg version="1.1" xmlns="http://www.w3.org/2000/svg" style="display: block;" width="268" height="347" viewBox="57.77 44.78 1131.89 1464.80" preserveAspectRatio="none"><g id="svg-group-a258fc41-e57a-473b-bf42-8f0fe691e50b">
<path transform="translate(0,0)" fill="rgba(255, 255, 255, 1)" d="M 323.69 76.3635 C 384.647 73.1602 448.393 93.6265 498.935 127.618 C 517.445 140.066 550.006 167.697 559.983 186.796 C 643.158 155.418 731.696 166.498 818.847 164.261 C 841.158 163.689 870.278 163.52 891.957 166.432 C 962.322 175.882 1034.69 215.701 1079.42 270.915 C 1189.66 407.261 1150.58 608.862 1009.28 706.292 C 949.719 747.36 887.271 761.505 815.053 758.702 C 807.553 758.411 780.948 754.634 775.288 757.426 C 735.771 776.922 701.712 809.607 666.649 836.074 C 646.539 851.801 627.8 869.044 607.99 885.201 C 593.533 897.366 572.23 914.746 552.001 913.83 C 504.298 911.671 498.233 868.909 500.945 830.949 C 502.637 807.254 499.941 784.579 501.688 761.515 C 503.272 740.603 505.213 721.752 504.436 701.517 C 487.475 686.442 451.946 652.425 439.697 635.662 C 421.538 641.291 397.78 643.645 378.603 642.359 C 366.152 641.861 346.602 636.232 335.772 643.799 C 297.053 671.16 257.845 693.544 218.983 721.13 C 185.486 744.392 139.627 780.489 108.316 732.185 C 97.9716 716.227 102.5 705.424 104.956 688.847 C 108.468 665.541 112.676 642.346 117.574 619.292 C 122.349 595.718 129.015 574.496 130.011 549.868 C 130.066 548.491 130.899 538.431 130.631 537.989 C 120.759 521.713 96.8887 494.947 88.9706 478.322 C 81.1601 461.924 71.6943 434.393 68.2541 417.73 C 65.0912 402.41 60.9885 385.455 59.5827 370.796 C 57.7665 351.86 61.3196 334.965 63.8219 317.412 C 70.814 268.365 81.0429 241.503 106.908 200.78 C 145.255 140.407 205.809 102.032 274.677 85.3641 C 289.379 81.8059 307.76 79.7209 323.69 76.3635 z M 789.752 657.22 C 811.738 656.191 833.056 656.344 855.573 655.06 C 1008.04 646.365 1102.18 467.594 1008.66 342.268 C 999.355 329.795 983.406 315.863 973.093 303.835 C 921.667 254.329 849.035 265.101 785.067 264.86 L 681.228 265.318 C 665.246 265.41 646.805 263.985 631.122 265.445 C 595.392 268.86 565.915 293.634 541.775 318.334 C 537.175 323.04 529.753 328.827 525.854 333.844 C 490.916 378.803 478.61 430.256 484.875 486.353 C 491.616 533.864 515.935 579.047 551.771 610.767 C 561.914 619.745 593.538 639.182 597.952 647.437 C 609.954 669.881 594.014 741.859 604.263 763.115 L 605.599 763.647 C 614.711 758.65 625.605 742.038 636.082 736.178 C 637.882 735.172 644.421 727.837 646.849 725.988 C 690.835 692.496 733.197 661.022 789.752 657.22 z M 282.602 565.056 C 336.697 529.487 343.732 548.781 396.384 539.634 C 393.91 530.843 393.655 522.103 391.56 513.891 C 385.292 489.326 384.395 471.553 385.26 446.369 C 386.509 409.985 390.408 374.786 405.936 341.163 C 418.235 313.649 434.241 288.054 453.197 264.623 C 460.87 255.138 469.561 247.828 476.33 237.435 C 447.286 204.078 397.693 178.062 353.402 174.986 C 343.413 174.285 333.381 174.487 323.429 175.591 C 289.166 176.759 248.267 192.225 225.604 218.292 C 220.145 224.57 214.087 230.522 208.282 236.464 C 204.005 240.842 193.759 248.587 190.601 252.786 C 163.45 288.879 158.096 327.85 160.519 371.575 C 162.144 408.4 174.242 445.51 200.223 472.42 C 205.271 477.65 223.95 494.325 224.807 500.671 C 229.214 533.325 221.22 565.797 222.646 599.134 C 231.508 603.772 271.551 570.599 282.602 565.056 z"/>
<path transform="translate(0,0)" fill="rgba(255, 255, 255, 1)" d="M 203.496 884.471 C 241.139 884.016 277.07 884.714 312.922 892.785 C 394.398 911.125 467.287 960.273 514.397 1029.16 C 517.861 1034.22 532.482 1057.68 536.232 1060.63 C 539.879 1060.3 544.495 1051.51 546.617 1048.2 C 591.364 978.552 657.549 921.744 738.221 898.863 C 763.781 891.613 793.613 884.972 820.737 884.382 C 854.362 883.65 889.57 884.671 923.376 884.12 C 942.957 884.635 965.543 880.985 980.973 895.941 C 993.522 908.106 995.405 921.692 995.384 938.256 C 995.279 1020.2 995.325 1102.15 995.449 1184.1 L 995.647 1261.99 C 995.841 1297.15 1002.36 1343.54 953.577 1349.56 C 941.824 1351.01 931.619 1351.02 919.82 1351.03 L 823.056 1350.59 C 815.897 1350.53 807.401 1350.86 800.472 1350.42 C 718.843 1345.26 633.828 1383.57 590.839 1454.38 C 586.603 1461.35 581.664 1468.47 576.547 1475.36 C 555.469 1481.21 535.538 1480.45 513.96 1478.08 C 493.428 1465.43 491.627 1448.94 480.868 1435.63 C 450.505 1399.33 410.212 1376 365.719 1361.47 C 329.207 1349.55 303.762 1350.45 266.504 1350.64 L 173.542 1351.61 C 155.362 1351.84 135.933 1352.83 118.12 1350.78 C 102.805 1348.77 86.2323 1334.9 84.0493 1319.26 C 79.32 1285.37 81.172 1248.61 81.1563 1214.29 L 81.0929 1059.62 L 80.8937 974.088 C 80.6954 904.697 81.2475 881.611 161.954 884.804 C 174.677 885.308 190.574 884.717 203.496 884.471 z M 179.431 1256.07 C 194.714 1258.14 204.801 1255.81 219.778 1255.27 C 244.105 1254.39 274.615 1252.16 298.562 1254.4 C 345.466 1258.81 394.902 1268.31 436.939 1290.1 C 453.994 1299.17 470.909 1311.73 487.505 1321.85 L 489.876 1323.42 L 491.323 1322.46 C 493.299 1312.43 490.572 1278.35 490.374 1266.23 C 490.108 1249.91 489.985 1232.3 489.603 1215.99 C 488.466 1167.45 473.29 1131.2 446.282 1091.57 C 443.422 1087.37 435.498 1081.32 431.971 1076.79 C 429.004 1072.97 427.434 1066.46 424.694 1063.36 C 420.044 1058.1 413.633 1052.52 408.917 1047.41 C 375.49 1011.2 328.794 991.281 280.834 983.014 C 257.608 979.01 230.827 980.455 207.041 980.095 C 199.142 979.975 184.974 980.962 177.567 979.849 C 176.123 1000.63 177.929 1024.04 177.82 1045.26 C 177.897 1071.81 177.542 1098.32 177.911 1124.87 C 178.001 1131.34 181.843 1135.15 182.195 1139.11 C 185.572 1177.13 175.9 1218.34 179.431 1256.07 z M 627.323 1298.59 C 643.217 1289.94 654.635 1283.45 671.573 1276.31 C 724.034 1254.22 781.131 1253.3 837.119 1254.05 C 855.073 1254.29 883.788 1257.39 900.779 1255.28 C 902.961 1238.54 901.81 1201.78 901.715 1183.38 L 901.399 1049.62 C 901.372 1029.14 900.193 1000.02 901.613 980.685 C 886.854 979.059 866.164 979.999 850.94 980.458 C 806.127 981.531 762.266 985.293 722.543 1008.14 C 658.128 1045.19 599.775 1122.13 593.34 1197.45 C 592.278 1209.88 591.434 1312.06 593.684 1318.27 C 601.641 1316.1 620.2 1303.71 627.323 1298.59 z"/>
</g></svg></svg><svg x="287" y="287" width="450" height="450" xmlns="http://www.w3.org/2000/svg" style="display:block" preserveAspectRatio="none"><svg xmlns="http://www.w3.org/2000/svg" width="450" height="450" viewBox="0 0 450 450"><clipPath id="corners-clip-svg-group-245562ed-f0fe-4eb0-b21e-5fe6087d6533"><path d="M 101.25 0 L 348.75 0 A 101.25 101.25 0 0 1 450 101.25 L 450 348.75 A 101.25 101.25 0 0 1 348.75 450 L 101.25 450 A 101.25 101.25 0 0 1 0 348.75 L 0 101.25 A 101.25 101.25 0 0 1 101.25 0 Z"/></clipPath><g clip-path="url(#corners-clip-svg-group-245562ed-f0fe-4eb0-b21e-5fe6087d6533)"><svg preserveAspectRatio="none" fill="rgba(31, 55, 249, 1)" data-bbox="20 20 160 160" viewBox="20 20 160 160" height="100%" width="100%" xmlns="http://www.w3.org/2000/svg" data-type="shape">
    <g id="svg-group-245562ed-f0fe-4eb0-b21e-5fe6087d6533">
        <path d="M180 20v160H20V20h160z"/>
    </g>
</svg>
</g></svg></svg><svg x="378" y="339" width="268" height="347" xmlns="http://www.w3.org/2000/svg" style="display:block" preserveAspectRatio="none"><svg version="1.1" xmlns="http://www.w3.org/2000/svg" style="display: block;" width="268" height="347" viewBox="57.77 44.78 1131.89 1464.80" preserveAspectRatio="none"><g id="svg-group-74a0450d-60f5-40e9-93ce-b336f52be12c">
<path transform="translate(0,0)" fill="rgba(255, 255, 255, 1)" d="M 323.69 76.3635 C 384.647 73.1602 448.393 93.6265 498.935 127.618 C 517.445 140.066 550.006 167.697 559.983 186.796 C 643.158 155.418 731.696 166.498 818.847 164.261 C 841.158 163.689 870.278 163.52 891.957 166.432 C 962.322 175.882 1034.69 215.701 1079.42 270.915 C 1189.66 407.261 1150.58 608.862 1009.28 706.292 C 949.719 747.36 887.271 761.505 815.053 758.702 C 807.553 758.411 780.948 754.634 775.288 757.426 C 735.771 776.922 701.712 809.607 666.649 836.074 C 646.539 851.801 627.8 869.044 607.99 885.201 C 593.533 897.366 572.23 914.746 552.001 913.83 C 504.298 911.671 498.233 868.909 500.945 830.949 C 502.637 807.254 499.941 784.579 501.688 761.515 C 503.272 740.603 505.213 721.752 504.436 701.517 C 487.475 686.442 451.946 652.425 439.697 635.662 C 421.538 641.291 397.78 643.645 378.603 642.359 C 366.152 641.861 346.602 636.232 335.772 643.799 C 297.053 671.16 257.845 693.544 218.983 721.13 C 185.486 744.392 139.627 780.489 108.316 732.185 C 97.9716 716.227 102.5 705.424 104.956 688.847 C 108.468 665.541 112.676 642.346 117.574 619.292 C 122.349 595.718 129.015 574.496 130.011 549.868 C 130.066 548.491 130.899 538.431 130.631 537.989 C 120.759 521.713 96.8887 494.947 88.9706 478.322 C 81.1601 461.924 71.6943 434.393 68.2541 417.73 C 65.0912 402.41 60.9885 385.455 59.5827 370.796 C 57.7665 351.86 61.3196 334.965 63.8219 317.412 C 70.814 268.365 81.0429 241.503 106.908 200.78 C 145.255 140.407 205.809 102.032 274.677 85.3641 C 289.379 81.8059 307.76 79.7209 323.69 76.3635 z M 789.752 657.22 C 811.738 656.191 833.056 656.344 855.573 655.06 C 1008.04 646.365 1102.18 467.594 1008.66 342.268 C 999.355 329.795 983.406 315.863 973.093 303.835 C 921.667 254.329 849.035 265.101 785.067 264.86 L 681.228 265.318 C 665.246 265.41 646.805 263.985 631.122 265.445 C 595.392 268.86 565.915 293.634 541.775 318.334 C 537.175 323.04 529.753 328.827 525.854 333.844 C 490.916 378.803 478.61 430.256 484.875 486.353 C 491.616 533.864 515.935 579.047 551.771 610.767 C 561.914 619.745 593.538 639.182 597.952 647.437 C 609.954 669.881 594.014 741.859 604.263 763.115 L 605.599 763.647 C 614.711 758.65 625.605 742.038 636.082 736.178 C 637.882 735.172 644.421 727.837 646.849 725.988 C 690.835 692.496 733.197 661.022 789.752 657.22 z M 282.602 565.056 C 336.697 529.487 343.732 548.781 396.384 539.634 C 393.91 530.843 393.655 522.103 391.56 513.891 C 385.292 489.326 384.395 471.553 385.26 446.369 C 386.509 409.985 390.408 374.786 405.936 341.163 C 418.235 313.649 434.241 288.054 453.197 264.623 C 460.87 255.138 469.561 247.828 476.33 237.435 C 447.286 204.078 397.693 178.062 353.402 174.986 C 343.413 174.285 333.381 174.487 323.429 175.591 C 289.166 176.759 248.267 192.225 225.604 218.292 C 220.145 224.57 214.087 230.522 208.282 236.464 C 204.005 240.842 193.759 248.587 190.601 252.786 C 163.45 288.879 158.096 327.85 160.519 371.575 C 162.144 408.4 174.242 445.51 200.223 472.42 C 205.271 477.65 223.95 494.325 224.807 500.671 C 229.214 533.325 221.22 565.797 222.646 599.134 C 231.508 603.772 271.551 570.599 282.602 565.056 z"/>
<path transform="translate(0,0)" fill="rgba(255, 255, 255, 1)" d="M 203.496 884.471 C 241.139 884.016 277.07 884.714 312.922 892.785 C 394.398 911.125 467.287 960.273 514.397 1029.16 C 517.861 1034.22 532.482 1057.68 536.232 1060.63 C 539.879 1060.3 544.495 1051.51 546.617 1048.2 C 591.364 978.552 657.549 921.744 738.221 898.863 C 763.781 891.613 793.613 884.972 820.737 884.382 C 854.362 883.65 889.57 884.671 923.376 884.12 C 942.957 884.635 965.543 880.985 980.973 895.941 C 993.522 908.106 995.405 921.692 995.384 938.256 C 995.279 1020.2 995.325 1102.15 995.449 1184.1 L 995.647 1261.99 C 995.841 1297.15 1002.36 1343.54 953.577 1349.56 C 941.824 1351.01 931.619 1351.02 919.82 1351.03 L 823.056 1350.59 C 815.897 1350.53 807.401 1350.86 800.472 1350.42 C 718.843 1345.26 633.828 1383.57 590.839 1454.38 C 586.603 1461.35 581.664 1468.47 576.547 1475.36 C 555.469 1481.21 535.538 1480.45 513.96 1478.08 C 493.428 1465.43 491.627 1448.94 480.868 1435.63 C 450.505 1399.33 410.212 1376 365.719 1361.47 C 329.207 1349.55 303.762 1350.45 266.504 1350.64 L 173.542 1351.61 C 155.362 1351.84 135.933 1352.83 118.12 1350.78 C 102.805 1348.77 86.2323 1334.9 84.0493 1319.26 C 79.32 1285.37 81.172 1248.61 81.1563 1214.29 L 81.0929 1059.62 L 80.8937 974.088 C 80.6954 904.697 81.2475 881.611 161.954 884.804 C 174.677 885.308 190.574 884.717 203.496 884.471 z M 179.431 1256.07 C 194.714 1258.14 204.801 1255.81 219.778 1255.27 C 244.105 1254.39 274.615 1252.16 298.562 1254.4 C 345.466 1258.81 394.902 1268.31 436.939 1290.1 C 453.994 1299.17 470.909 1311.73 487.505 1321.85 L 489.876 1323.42 L 491.323 1322.46 C 493.299 1312.43 490.572 1278.35 490.374 1266.23 C 490.108 1249.91 489.985 1232.3 489.603 1215.99 C 488.466 1167.45 473.29 1131.2 446.282 1091.57 C 443.422 1087.37 435.498 1081.32 431.971 1076.79 C 429.004 1072.97 427.434 1066.46 424.694 1063.36 C 420.044 1058.1 413.633 1052.52 408.917 1047.41 C 375.49 1011.2 328.794 991.281 280.834 983.014 C 257.608 979.01 230.827 980.455 207.041 980.095 C 199.142 979.975 184.974 980.962 177.567 979.849 C 176.123 1000.63 177.929 1024.04 177.82 1045.26 C 177.897 1071.81 177.542 1098.32 177.911 1124.87 C 178.001 1131.34 181.843 1135.15 182.195 1139.11 C 185.572 1177.13 175.9 1218.34 179.431 1256.07 z M 627.323 1298.59 C 643.217 1289.94 654.635 1283.45 671.573 1276.31 C 724.034 1254.22 781.131 1253.3 837.119 1254.05 C 855.073 1254.29 883.788 1257.39 900.779 1255.28 C 902.961 1238.54 901.81 1201.78 901.715 1183.38 L 901.399 1049.62 C 901.372 1029.14 900.193 1000.02 901.613 980.685 C 886.854 979.059 866.164 979.999 850.94 980.458 C 806.127 981.531 762.266 985.293 722.543 1008.14 C 658.128 1045.19 599.775 1122.13 593.34 1197.45 C 592.278 1209.88 591.434 1312.06 593.684 1318.27 C 601.641 1316.1 620.2 1303.71 627.323 1298.59 z"/>
</g></svg></svg></svg>